<svg width="32" height="28" viewBox="0 0 32 28" fill="none" xmlns="http://www.w3.org/2000/svg">
<path d="M20.9223 15.1902C23.4034 15.1903 25.8132 15.1758 28.2227 15.1958C29.8443 15.2093 31.1462 14.7735 31.6662 13.0824C31.6897 13.006 31.7759 12.9481 31.8934 12.8108C32.0447 13.2395 31.9821 13.6072 31.9845 13.9623C31.9934 15.2949 31.9601 16.6284 31.9988 17.9599C32.0172 18.5916 31.8233 18.8099 31.1525 18.804C27.765 18.7743 24.377 18.7909 20.9892 18.7912C20.7321 18.7913 20.4749 18.7912 20.2836 18.7912C20.0472 19.0853 20.2003 19.2811 20.2713 19.4635C20.8747 21.0128 21.4914 22.5572 22.1014 24.1041C22.6988 25.6191 23.2626 27.1572 25.0379 27.8206C25.0081 27.8706 24.9782 27.9207 24.9484 27.9707C21.8609 27.9707 18.7734 27.9707 15.4917 27.9707C15.8983 27.7986 16.1456 27.6933 16.3934 27.5891C17.2512 27.2282 17.5779 26.6254 17.3939 25.7403C17.3844 25.6947 17.3641 25.6513 17.3529 25.606C16.7454 23.1406 16.7454 23.1412 14.1969 23.1436C12.4791 23.1452 10.7611 23.162 9.0438 23.134C8.52508 23.1256 8.2569 23.2956 8.11989 23.7838C7.94332 24.413 7.67095 25.0173 7.50937 25.6493C7.25271 26.6532 7.53632 27.158 8.51503 27.5879C8.76584 27.6981 9.02158 27.7975 9.25452 28C6.17551 28 3.09651 28 0.0261644 28C-0.0467684 27.8372 0.0456132 27.7443 0.145796 27.6943C1.48269 27.0268 2.08117 25.8198 2.5882 24.5338C4.4698 19.7615 6.37831 14.9993 8.2296 10.2157C8.52769 9.44545 8.88638 9.08471 9.76641 9.16424C10.6889 9.2476 11.626 9.16505 12.5558 9.18747C13.0674 9.19981 13.2971 9.03016 13.2802 8.50139C13.2185 6.56342 13.3358 4.62477 13.191 2.68433C13.1031 1.50693 12.6595 0.672927 11.4974 0.266018C11.4172 0.237957 11.3529 0.166638 11.1195 0C14.2497 0 17.1992 0 20.1561 0C20.2019 0.269041 19.9465 0.266768 19.794 0.325284C18.7299 0.733516 18.246 1.51569 18.2342 2.60788C18.2154 4.33753 18.198 6.0672 18.1855 7.79691C18.1713 9.75951 18.1637 11.7222 18.1518 13.6848C18.145 14.8078 18.5206 15.1909 19.6343 15.1911C20.0398 15.1911 20.4453 15.1905 20.9223 15.1902ZM14.8846 18.9503C14.085 16.8403 13.2855 14.7304 12.4859 12.6204C12.4318 12.6207 12.3777 12.621 12.3236 12.6213C11.4759 14.8769 10.6282 17.1325 9.72901 19.5249C11.5023 19.5249 13.1101 19.5339 14.7177 19.5172C15.0294 19.5139 15.0098 19.2733 14.8846 18.9503Z" fill="#1B4332"/>
</svg>
